<?xml version="1.0" standalone="no"?>
<!DOCTYPE svg PUBLIC "-//W3C//DTD SVG 1.1//EN" "http://www.w3.org/Graphics/SVG/1.1/DTD/svg11.dtd" >
<svg xmlns="http://www.w3.org/2000/svg" xmlns:xlink="http://www.w3.org/1999/xlink" version="1.1">
<metadata></metadata>
<defs>
<font id="helveticaoblique" horiz-adv-x="1138" >
<font-face units-per-em="2048" ascent="1638" descent="-410" />
<missing-glyph horiz-adv-x="569" />
<glyph horiz-adv-x="0" />
<glyph unicode="&#xd;" horiz-adv-x="569" />
<glyph unicode=" "  horiz-adv-x="569" />
<glyph unicode="&#x09;" horiz-adv-x="569" />
<glyph unicode="&#xa0;" horiz-adv-x="569" />
<glyph unicode="!" horiz-adv-x="569" d="M184 0l45 209h199l-45 -209h-199zM307 350l86 635l105 485h198l-104 -485l-184 -635h-101z" />
<glyph unicode="&#x22;" horiz-adv-x="727" d="M344 948l113 522h149l-112 -522h-150zM635 948l113 522h149l-113 -522h-149z" />
<glyph unicode="#" d="M150 430l45 129h211l100 291h-211l47 129h211l149 430h138l-150 -430h254l150 430h137l-150 -430h211l-47 -129h-211l-102 -291h211l-45 -129h-211l-152 -430h-135l152 430h-256l-152 -430h-135l151 430h-210zM541 559h256l100 291h-254z" />
<glyph unicode="$" d="M141 285q0 70 17 151h180q-10 -70 -10 -119q0 -96 48 -141t165 -65l116 542q-166 41 -239 95q-111 76 -111 215q0 43 12 94q35 168 181.5 283.5t326.5 115.5l29 131h96l-28 -131q342 -27 342 -301q-1 -41 -9 -88h-174q8 96 -24 147q-43 68 -166 93l-105 -490 q207 -63 273 -108q102 -70 102 -199q0 -49 -12 -109q-51 -233 -238 -350q-143 -90 -307 -90l-41 -197h-96l41 197q-369 20 -369 324zM496 1020q-1 -147 200 -182l101 469q-119 0 -210 -84t-91 -203zM637 111q133 0 232.5 90t99.5 221q0 135 -117 174l-104 35z" />
<glyph unicode="%" horiz-adv-x="1820" d="M301 1004q0 34 8 73q31 145 155 245.5t269 100.5q123 0 203 -77.5t80 -196.5q0 -35 -8 -72q-31 -145 -155 -247.5t-269 -102.5q-125 0 -204 78t-79 199zM440 -39l1123 1479h112l-1124 -1479h-111zM446 1028q0 -72 47.5 -115t118.5 -43q100 0 178 76t78 174q0 70 -46 115 t-120 45q-100 0 -178 -76t-78 -176zM1106 262q0 35 8 74q31 145 155 245.5t269 100.5q123 0 203 -78t80 -196q0 -35 -9 -72q-31 -145 -154.5 -247.5t-266.5 -102.5q-127 0 -206 77.5t-79 198.5zM1251 287q0 -72 47.5 -115t118.5 -43q100 0 178 76t78 174q0 70 -46 115 t-120 45q-100 0 -178 -76t-78 -176z" />
<glyph unicode="&#x26;" horiz-adv-x="1366" d="M158 274q0 43 8 80q33 156 120 253.5t310 209.5q-96 160 -96 248q0 35 10 78q29 135 137 227q119 100 281 100q137 0 209 -71q63 -61 63 -164q0 -33 -8 -68q-29 -135 -143 -241q-63 -61 -203 -144l201 -319q61 104 108 229h170q-56 -185 -199 -375l195 -317h-234 l-102 168q-215 -199 -469 -199q-199 0 -291 105q-68 80 -67 200zM342 317q0 -96 82 -151q63 -41 137 -41q200 0 354 164l-245 405q-156 -88 -215 -141q-82 -76 -107 -184q-6 -27 -6 -52zM682 1118q0 -98 94 -219q211 127 240 254q4 25 4 45q0 117 -129 117 q-88 0 -148.5 -54.5t-60.5 -142.5z" />
<glyph unicode="'" horiz-adv-x="391" d="M322 948l112 522h150l-113 -522h-149z" />
<glyph unicode="(" horiz-adv-x="681" d="M221 250q0 135 31 285q102 472 553 966h125q-219 -295 -299 -446q-125 -233 -197 -570q-31 -145 -31 -284q0 -227 119 -625h-121q-180 397 -180 674z" />
<glyph unicode=")" horiz-adv-x="681" d="M-18 -424q219 295 299 447q125 233 194 569q33 145 33 285q0 227 -119 624h121q180 -397 180 -674q0 -135 -33 -284q-100 -473 -551 -967h-124z" />
<glyph unicode="*" horiz-adv-x="796" d="M338 1210l63 113l199 -78l49 225h123l-49 -225l231 78l19 -113l-238 -69l99 -189l-115 -69l-92 192l-174 -192l-86 69l176 189z" />
<glyph unicode="+" horiz-adv-x="1196" d="M174 442l31 150h444l94 442h150l-94 -442h442l-31 -150h-442l-94 -442h-150l94 442h-444z" />
<glyph unicode="," horiz-adv-x="569" d="M115 -301l20 94q111 10 152 207h-109l47 217h213l-43 -201q-61 -285 -280 -317z" />
<glyph unicode="-" horiz-adv-x="681" d="M190 475l39 184h502l-39 -184h-502z" />
<glyph unicode="." horiz-adv-x="569" d="M178 0l47 217h213l-47 -217h-213z" />
<glyph unicode="/" horiz-adv-x="569" d="M-43 -39l834 1548h135l-832 -1548h-137z" />
<glyph unicode="0" d="M190 410q0 133 35 290q61 293 193 482q180 258 456 258q371 0 371 -449q0 -133 -33 -291q-63 -293 -194 -481q-180 -258 -457 -258q-371 0 -371 449zM383 420q0 -297 213 -297q301 -1 424 577q33 162 33 281q0 297 -211 297q-301 0 -424 -578q-35 -162 -35 -280z" />
<glyph unicode="1" d="M424 1022l31 143q195 14 270 56q98 53 174 219h141l-305 -1440h-192l217 1022h-336z" />
<glyph unicode="2" d="M53 0q94 383 459 571l215 111q164 84 217 131q90 78 119 205q6 29 6 57q0 86 -51 139q-61 63 -184 64q-271 0 -367 -354h-180q66 305 282 434q139 82 324 82q166 0 268.5 -88t102.5 -240q0 -49 -11 -102q-37 -174 -176 -293q-92 -80 -311 -189l-168 -82 q-250 -123 -305 -276h782l-37 -170h-985z" />
<glyph unicode="3" d="M154 313q0 55 10 127h186q-10 -59 -10 -102q0 -215 250 -215q137 0 241.5 76.5t131.5 201.5q8 37 8 70q0 195 -289 195h-41q-29 -2 -41 -2l33 155q61 -4 94 -4q274 0 324 236q6 25 6 49q0 178 -223 178q-166 0 -259 -117q-51 -66 -88 -192h-176q41 195 156 315 q152 156 407 156q178 0 276.5 -81t98.5 -214q0 -41 -10 -84q-27 -125 -106 -209q-63 -66 -142 -88v-4q178 -61 178 -242q0 -43 -10 -94q-41 -195 -190 -320q-168 -143 -426 -143q-145 0 -252 64q-137 82 -137 288z" />
<glyph unicode="4" d="M125 350l39 176l852 914h149l-196 -934h211l-35 -156h-211l-74 -350h-180l74 350h-629zM326 506h462l138 653h-4z" />
<glyph unicode="5" d="M139 297q0 29 2 61h187q-25 -242 254 -241q137 0 240.5 95t131.5 234q10 43 11 82q0 113 -72 175.5t-191 62.5q-160 0 -294 -137l-154 8l272 772h746l-37 -176h-610l-146 -395q137 90 297 90q162 0 271 -92q117 -98 116 -265q0 -49 -12 -104q-37 -180 -158 -313 q-176 -193 -471 -193q-160 0 -258 68q-125 84 -125 268z" />
<glyph unicode="6" d="M186 389q0 119 35 281q63 301 211 504q195 266 483 266q137 0 230 -68q115 -82 115 -242q-1 -34 -5 -73h-176q6 221 -200 221q-186 0 -322 -209q-96 -147 -135 -324l4 -4q139 176 379 177q139 0 242 -76q125 -92 124 -264q0 -55 -12 -117q-45 -211 -215 -361 q-156 -139 -393 -139q-238 0 -326 209q-39 92 -39 219zM375 362q0 -102 55 -165q66 -74 188 -74q127 0 224.5 91t128.5 239q8 39 8 77q0 225 -236 226q-158 0 -263 -117t-105 -277z" />
<glyph unicode="7" d="M281 0q96 289 346 645q238 340 503 588h-792l37 176h995l-33 -158q-199 -168 -403 -440q-297 -389 -455 -811h-198z" />
<glyph unicode="8" d="M150 291q0 49 16 123q53 252 317 350q-141 59 -141 209q0 35 6 71q33 145 144 254q147 141 376 142q193 0 291 -94q84 -78 84 -203q0 -37 -8 -74q-45 -209 -250 -303q172 -80 172 -264q0 -41 -10 -86q-41 -190 -182 -314q-162 -141 -402 -141q-207 0 -323 111 q-90 86 -90 219zM350 338q0 -215 254 -215q289 0 346 272q8 39 8 74q0 102 -69 158q-65 49 -178 49q-143 0 -242 -84q-88 -74 -111 -182q-8 -37 -8 -72zM532 1008q0 -80 59.5 -128.5t149.5 -48.5q121 0 216.5 79t95.5 196q0 172 -228 172q-121 0 -207 -77t-86 -193z" />
<glyph unicode="9" d="M168 268q0 39 8 78h180q-4 -27 -4 -49q0 -186 197 -186q147 0 258 129t203 409l-2 4q-55 -80 -159 -126t-208 -46q-170 0 -268.5 91.5t-98.5 252.5q0 57 13 121q45 209 192 344q158 150 375 150q393 0 393 -412q0 -113 -30 -256q-55 -262 -175 -463q-203 -348 -520 -348 q-190 0 -282 102q-72 80 -72 205zM463 850q-1 -207 239 -207q102 0 185 57q121 82 162 271q10 47 10 88q0 219 -236 219q-127 0 -222 -89t-126 -235q-12 -57 -12 -104z" />
<glyph unicode=":" horiz-adv-x="569" d="M178 0l47 217h213l-47 -217h-213zM356 840l47 217h213l-47 -217h-213z" />
<glyph unicode=";" horiz-adv-x="569" d="M115 -301l20 94q111 10 152 207h-109l47 217h213l-43 -201q-61 -285 -280 -317zM356 840l47 217h213l-47 -217h-213z" />
<glyph unicode="&#x3c;" horiz-adv-x="1196" d="M193 446l30 144l1090 424l-35 -164l-868 -332l727 -332l-35 -163z" />
<glyph unicode="=" horiz-adv-x="1196" d="M129 236l33 149h1036l-33 -149h-1036zM217 649l33 150h1036l-33 -150h-1036z" />
<glyph unicode="&#x3e;" horiz-adv-x="1196" d="M102 23l35 163l871 332l-729 332l34 164l910 -424l-31 -144z" />
<glyph unicode="?" d="M330 1010q35 137 69 200q57 106 174 185q141 94 318 94q156 0 254 -78q104 -84 104 -229q0 -45 -10 -95q-20 -96 -80 -169q-51 -61 -185 -168t-173 -158q-57 -78 -84 -217h-180q35 164 96 252q47 66 192 188q131 113 164 152q43 49 60 133q6 27 6 53q0 180 -205 180 q-272 1 -340 -323h-180zM453 0l45 209h198l-45 -209h-198z" />
<glyph unicode="@" horiz-adv-x="2078" d="M440 571q0 82 19 168q68 319 343 544.5t593 225.5q252 0 416.5 -142t164.5 -370q0 -61 -14 -127q-53 -254 -268 -434q-186 -158 -346 -157q-106 0 -107 98q0 14 2 31l-4 -2q-145 -127 -272 -127q-111 0 -175.5 70.5t-64.5 178.5q0 39 8 78q47 219 211 387 q178 178 383 178q160 1 201 -159l67 127h140q-41 -84 -211 -420q-109 -215 -115 -248q-12 -59 31 -59q104 0 227 139t158 303q12 61 12 117q0 190 -132 300.5t-341 110.5q-268 0 -485 -189t-277 -466q-14 -72 -14 -141q0 -219 142 -358.5t374 -139.5q143 0 289.5 62.5 t257.5 171.5h137q-135 -168 -326.5 -264.5t-388.5 -96.5q-283 0 -459 172t-176 438zM901 569q0 -143 135 -143q129 0 263.5 160t134.5 291q0 61 -38 104t-96 43q-137 0 -270 -160q-129 -152 -129 -295z" />
<glyph unicode="A" horiz-adv-x="1366" d="M29 0l866 1470h225l219 -1470h-217l-55 428h-590l-244 -428h-204zM578 604h456l-80 647h-4z" />
<glyph unicode="B" horiz-adv-x="1366" d="M152 0l313 1470h647q168 0 260 -81q86 -78 86 -205q0 -41 -10 -84q-45 -215 -262 -307q88 -39 129 -78q71 -69 71 -182q0 -48 -10 -99q-39 -186 -192 -305q-164 -129 -400 -129h-632zM387 170h424q311 0 367 268q8 33 8 62q0 186 -299 186h-391zM530 848h359 q307 0 358 237q6 31 6 56q0 159 -263 159h-3h-360z" />
<glyph unicode="C" horiz-adv-x="1478" d="M219 498q0 113 29 245q74 344 303 555t547 211q250 0 383 -131q121 -115 121 -299q-1 -26 -3 -51h-192q0 305 -348 305q-209 0 -371 -147q-174 -158 -233 -436q-27 -125 -27 -226q0 -387 383 -387q131 0 250 74q164 102 256 330h192q-127 -354 -415 -498 q-166 -82 -351 -82q-229 0 -366 125q-158 139 -158 412z" />
<glyph unicode="D" horiz-adv-x="1478" d="M166 0l313 1470h596q233 0 361.5 -136t128.5 -369q0 -98 -25 -209q-63 -299 -237 -502q-219 -254 -549 -254h-588zM401 170h385q197 0 343.5 149.5t203.5 423.5q23 106 23 195q0 362 -344 362h-371z" />
<glyph unicode="E" horiz-adv-x="1366" d="M176 0l313 1470h1072l-39 -176h-873l-94 -450h805l-39 -176h-805l-104 -492h886l-36 -176h-1086z" />
<glyph unicode="F" horiz-adv-x="1251" d="M176 0l313 1470h1018l-39 -176h-819l-94 -450h721l-39 -176h-721l-141 -668h-199z" />
<glyph unicode="G" horiz-adv-x="1593" d="M225 504q0 98 33 244q63 301 277 516q245 245 578 245h3q225 0 373 -118q147 -120 147 -316q0 -25 -2 -51h-192q-10 309 -375 309q-207 0 -371 -153q-178 -164 -235 -443q-27 -121 -27 -217q0 -389 387 -389q182 0 320 94q190 129 245 391h-458l37 170h645l-168 -786 h-129l-6 190q-98 -104 -241.5 -166.5t-293.5 -62.5q-276 0 -416 166q-131 156 -131 377z" />
<glyph unicode="H" horiz-adv-x="1478" d="M158 0l313 1470h199l-131 -608h768l131 608h198l-313 -1470h-199l146 686h-768l-146 -686h-198z" />
<glyph unicode="I" horiz-adv-x="569" d="M186 0l314 1470h198l-313 -1470h-199z" />
<glyph unicode="J" horiz-adv-x="1024" d="M96 246q0 41 8 82l31 145h187l-23 -102q-8 -47 -8 -84q0 -156 180 -156q236 0 289 254l231 1085h199l-229 -1073q-49 -236 -211 -348q-129 -88 -306 -88q-348 0 -348 285z" />
<glyph unicode="K" horiz-adv-x="1366" d="M156 0l313 1470h199l-152 -712l864 712h275l-740 -593l443 -877h-258l-357 737l-278 -221l-111 -516h-198z" />
<glyph unicode="L" d="M156 0l313 1470h199l-277 -1294h746l-37 -176h-944z" />
<glyph unicode="M" horiz-adv-x="1705" d="M150 0l313 1470h285l155 -1243h4l682 1243h283l-313 -1470h-193l184 868q2 10 34 148.5t48 218.5h-4l-676 -1235h-196l-152 1233h-4q-16 -80 -44 -217t-30 -148l-184 -868h-192z" />
<glyph unicode="N" horiz-adv-x="1478" d="M156 0l313 1470h236l481 -1187h4l254 1187h192l-313 -1470h-223l-496 1188h-4l-252 -1188h-192z" />
<glyph unicode="O" horiz-adv-x="1593" d="M215 537q0 98 21 198q63 293 260 506q250 268 622 268q303 0 451 -182q123 -150 123 -393q0 -99 -23 -199q-61 -293 -260 -506q-250 -268 -621 -268q-305 0 -452 182q-121 150 -121 394zM422 563q0 -195 105.5 -310.5t297.5 -115.5q236 0 412 170q172 164 227 428 q20 90 21 172q0 195 -105.5 310.5t-300.5 115.5q-236 0 -408.5 -167t-230.5 -431q-18 -90 -18 -172z" />
<glyph unicode="P" horiz-adv-x="1366" d="M176 0l313 1470h662q170 0 264 -86t94 -229q0 -221 -157.5 -377.5t-382.5 -156.5h-463l-131 -621h-199zM543 791h395q299 0 354 264q8 37 8 69q0 176 -245 176h-404z" />
<glyph unicode="Q" horiz-adv-x="1593" d="M215 537q0 98 21 198q63 293 260 506q250 268 622 268q303 0 451 -182q123 -150 123 -393q0 -98 -23 -199q-76 -360 -334 -575l166 -156l-125 -119l-188 174q-174 -98 -400 -98q-305 0 -452 182q-121 150 -121 394zM422 563q0 -195 105.5 -310.5t297.5 -115.5 q123 0 228 47l-129 119l127 123l155 -145q197 162 258 454q20 90 21 172q0 195 -105.5 310.5t-300.5 115.5q-236 0 -408.5 -167t-230.5 -431q-18 -90 -18 -172z" />
<glyph unicode="R" horiz-adv-x="1478" d="M180 0l314 1470h680q409 0 409 -291q0 -48 -10 -104q-49 -231 -281 -352q63 -29 86 -55q39 -45 39 -129q0 -41 -8 -93l-43 -266q-8 -43 -8 -65q0 -49 49 -82l-6 -33h-244q-2 20 -2 44q0 112 45 325q12 57 12 96q0 166 -219 166h-481l-133 -631h-199zM549 801h461 q299 0 352 254q10 41 10 75q0 170 -221 170h-496z" />
<glyph unicode="S" horiz-adv-x="1366" d="M184 334q0 59 17 141h186q-8 -45 -8 -86q0 -135 108 -203q88 -55 234 -55q147 0 256 45q152 63 180 203q8 39 8 67q0 76 -58 116t-208 77l-285 70q-249 61 -249 262q0 41 8 84q41 190 186 313q166 141 418 141q483 0 483 -356q0 -50 -10 -113h-186q6 33 6 62 q0 123 -99 186q-80 51 -208 51q-336 0 -392 -258q-4 -25 -4 -45q0 -109 140 -141l399 -96q262 -63 262 -293q0 -47 -12 -100q-49 -238 -269 -353q-172 -92 -401 -92q-289 0 -414 141q-88 98 -88 232z" />
<glyph unicode="T" horiz-adv-x="1251" d="M303 1294l39 176h1194l-39 -176h-498l-274 -1294h-199l275 1294h-498z" />
<glyph unicode="U" horiz-adv-x="1478" d="M266 489l209 981h199l-197 -925q-16 -70 -16 -129q0 -279 301 -279q164 0 280 82q145 102 193 322l199 929h198l-202 -954q-51 -240 -230 -391q-193 -164 -481 -164q-236 0 -359 117q-108 103 -108 279q0 64 14 132z" />
<glyph unicode="V" horiz-adv-x="1366" d="M354 1470h221l154 -1253h4l682 1253h223l-850 -1470h-210z" />
<glyph unicode="W" horiz-adv-x="1933" d="M346 1470h215l19 -1196h4l585 1196h217l74 -1196h4l531 1196h219l-701 -1470h-208l-78 1219h-4l-598 -1219h-209z" />
<glyph unicode="X" horiz-adv-x="1366" d="M39 0l686 754l-340 716h250l252 -563l493 563h238l-647 -716l356 -754h-246l-266 604l-536 -604h-240z" />
<glyph unicode="Y" horiz-adv-x="1366" d="M342 1470h231l271 -706l573 706h234l-744 -878l-125 -592h-198l125 592z" />
<glyph unicode="Z" horiz-adv-x="1251" d="M47 0l35 166l1141 1128h-834l39 176h1090l-37 -172l-1145 -1122h905l-37 -176h-1157z" />
<glyph unicode="[" horiz-adv-x="569" d="M43 -401l399 1880h383l-30 -146h-222l-337 -1589h221l-31 -145h-383z" />
<glyph unicode="\" horiz-adv-x="569" d="M287 1509h135l174 -1548h-137z" />
<glyph unicode="]" horiz-adv-x="569" d="M-29 -401l31 145h221l338 1589h-221l31 146h383l-400 -1880h-383z" />
<glyph unicode="^" horiz-adv-x="960" d="M86 541l621 868h147l250 -868h-158l-201 704l-499 -704h-160z" />
<glyph unicode="_" d="M-55 -256l22 102h1139l-23 -102h-1138z" />
<glyph unicode="`" horiz-adv-x="681" d="M348 1503h221l121 -289h-137z" />
<glyph unicode="a" d="M125 209q0 33 8 70q63 295 397 335l306 37q96 12 120 127q4 23 5 41q0 133 -220 133q-214 0 -290 -207h-166q88 356 518 357q113 0 201 -37q141 -59 141 -197q0 -31 -8 -65l-131 -617q-2 -12 -2 -20q0 -43 49 -43q18 0 61 8l-29 -131q-82 -20 -102 -20q-160 0 -160 118 q0 20 4 45q-197 -174 -424 -174q-127 0 -202.5 64.5t-75.5 175.5zM317 248q0 -129 162 -129q131 0 248 74t137 178l39 176q-51 -35 -311 -68q-236 -31 -266 -174q-8 -31 -9 -57z" />
<glyph unicode="b" d="M119 0l313 1470h180l-114 -534h4q150 166 344 166q170 0 264 -105q86 -100 86 -272q0 -76 -16 -158q-49 -233 -183 -395q-168 -203 -415 -203q-195 0 -260 164h-5l-28 -133h-170zM381 371q0 -129 78 -195q61 -51 151 -51q141 0 244 119q94 109 133 295q20 98 21 166 q0 235 -226 235h-2q-289 0 -387 -455q-12 -61 -12 -114z" />
<glyph unicode="c" horiz-adv-x="1024" d="M152 356q0 72 18 150q55 264 213 422q172 174 426 174q170 0 254 -98q70 -82 70 -220q-1 -36 -5 -73h-174q1 12 1 23q0 206 -205 206q-154 0 -261 -131q-86 -106 -120 -272q-20 -92 -21 -166q0 -246 225 -246q92 0 177.5 66.5t132.5 187.5h174q-51 -160 -164 -268 q-147 -141 -358 -142q-184 0 -283.5 105.5t-99.5 281.5z" />
<glyph unicode="d" d="M172 379q0 92 21 188q49 233 196 381q156 154 363 154q193 0 280 -182l8 14l115 536h180l-313 -1470h-170l31 147h-4q-133 -178 -342 -178q-195 0 -287 127q-78 104 -78 283zM354 387q0 -262 219 -262q111 0 205 74q125 96 164 286q25 115 25 199q0 256 -215 256 q-293 0 -379 -401q-18 -82 -19 -152z" />
<glyph unicode="e" d="M172 356q0 72 18 150q55 264 213 422q172 174 426 174q356 0 357 -395q0 -104 -27 -230h-782q-14 -63 -15 -117q0 -235 248 -235h2q117 0 215 76q87 65 107 135h180q-20 -57 -76 -131q-76 -102 -178 -162q-125 -74 -305 -74q-184 0 -283.5 105.5t-99.5 281.5zM406 621 h595q8 45 9 84q0 235 -236 235h-2q-123 0 -230 -96t-136 -223z" />
<glyph unicode="f" horiz-adv-x="569" d="M176 0l197 922h-148l31 149h147l39 184q51 236 330 236q25 0 80 -4l-33 -162q-45 4 -74 4q-106 0 -133 -125l-28 -133h180l-31 -149h-180l-197 -922h-180z" />
<glyph unicode="g" d="M86 -131h180q-2 -170 207 -170q201 0 299 141q51 74 86 236l10 45h-4l-2 -8q-121 -143 -315 -144q-195 0 -287 127q-78 104 -78 283q0 92 21 188q49 233 196 381q156 154 363 154q193 0 280 -182h5l32 151h170l-209 -983q-45 -211 -133 -328q-158 -211 -479 -211 q-141 0 -227 54q-117 71 -117 227q0 19 2 39zM365 387q0 -262 219 -262q111 0 204 74q125 96 164 286q25 115 25 199q0 256 -215 256q-293 0 -379 -401q-18 -82 -18 -152z" />
<glyph unicode="h" d="M133 0l313 1470h181l-117 -542h4q170 174 350 174q309 0 310 -262q-1 -52 -13 -111l-155 -729h-181l150 700q12 55 12 97q0 143 -174 143q-127 0 -221 -78q-115 -92 -154 -278l-125 -584h-180z" />
<glyph unicode="i" horiz-adv-x="454" d="M137 0l228 1071h180l-228 -1071h-180zM406 1266l45 204h180l-45 -204h-180z" />
<glyph unicode="j" horiz-adv-x="454" d="M-123 -424l33 156h37q84 0 113.5 21.5t48.5 109.5l256 1208h180l-260 -1229q-59 -272 -334 -272q-35 0 -74 6zM406 1266l45 204h180l-45 -204h-180z" />
<glyph unicode="k" horiz-adv-x="1024" d="M137 0l314 1470h174l-183 -852l557 453h230l-494 -399l291 -672h-231l-220 541l-178 -135l-86 -406h-174z" />
<glyph unicode="l" horiz-adv-x="454" d="M137 0l314 1470h180l-314 -1470h-180z" />
<glyph unicode="m" horiz-adv-x="1705" d="M133 0l227 1071h170l-32 -151h4q164 182 362 182q193 0 248 -174q102 92 162 125q90 49 203 49q100 0 172 -49q96 -66 96 -205q0 -49 -12 -107l-158 -741h-180l147 692q12 57 12 99q0 149 -155 149h-2q-111 0 -200 -87t-114 -200l-139 -653h-180l158 741q6 35 6 64 q0 135 -131 135q-104 0 -195 -70q-123 -94 -164 -286l-125 -584h-180z" />
<glyph unicode="n" d="M133 0l227 1071h170l-32 -151h4q164 182 362 182q309 0 310 -262q-1 -52 -13 -111l-155 -729h-181l140 659q16 70 16 119q0 162 -184 162q-104 0 -195 -70q-123 -94 -164 -286l-125 -584h-180z" />
<glyph unicode="o" d="M170 387q0 274 176 487q187 228 457 228q199 0 303 -125q92 -111 92 -291q0 -274 -176 -487q-188 -227 -459 -228q-199 0 -301 125q-92 111 -92 291zM358 406q0 -279 238 -279q172 0 285 152q82 109 114 258q14 68 15 131q0 278 -238 278h-2q-170 0 -285 -151 q-81 -108 -112 -258q-14 -68 -15 -131z" />
<glyph unicode="p" d="M29 -424l317 1495h170l-33 -151h4q168 182 359 182q170 0 264 -107q86 -100 86 -270q0 -76 -16 -158q-49 -233 -183 -395q-168 -203 -415 -203q-197 0 -254 144h-4l-115 -537h-180zM381 371q0 -129 78 -195q61 -51 151 -51q141 0 244 119q94 109 133 295q20 98 21 166 q0 235 -226 235h-2q-289 0 -387 -455q-12 -61 -12 -114z" />
<glyph unicode="q" d="M172 379q0 92 21 188q49 233 196 381q156 154 363 154q193 0 280 -182h4l33 151h170l-317 -1495h-181l115 537h-4q-121 -143 -315 -144q-195 0 -287 127q-78 104 -78 283zM354 387q0 -262 219 -262q111 0 205 74q125 96 164 286q25 115 25 199q0 256 -215 256 q-293 0 -379 -401q-18 -82 -19 -152z" />
<glyph unicode="r" horiz-adv-x="681" d="M158 0l227 1071h170l-37 -178h4q164 209 344 209q27 0 47 -6l-41 -187h-67q-123 0 -216 -82.5t-118 -203.5l-133 -623h-180z" />
<glyph unicode="s" horiz-adv-x="1024" d="M129 246q0 41 10 98h174q-4 -29 -4 -51q0 -168 242 -168q104 0 180 41q84 45 103 129q2 16 2 31q0 45 -41 70.5t-142 52.5l-198 51q-199 51 -199 200q0 29 6 60q35 166 178 260q129 82 299 82q344 0 344 -273q0 -34 -6 -63h-174q6 23 6 41q0 139 -221 139q-86 0 -151 -35 q-78 -41 -95 -116q-2 -18 -2 -31q0 -45 41 -70q31 -18 127 -43l170 -45q248 -66 248 -217q0 -31 -6 -65q-35 -162 -175 -258.5t-325 -96.5q-391 0 -391 277z" />
<glyph unicode="t" horiz-adv-x="569" d="M209 129q0 37 10 86l152 707h-146l31 149h145l64 299h180l-63 -299h172l-31 -149h-172l-150 -697q-2 -12 -2 -24q0 -59 95 -60h63l-31 -141q-139 -12 -139 -14h2q-180 0 -180 143z" />
<glyph unicode="u" d="M193 211q0 43 10 90l164 770h180l-152 -711q-8 -45 -8 -81q0 -154 166 -154q156 0 258 119q82 96 113 237l125 590h180l-228 -1071h-170l33 156l-2 4q-158 -190 -381 -191q-121 0 -196 51q-92 63 -92 191z" />
<glyph unicode="v" horiz-adv-x="1024" d="M244 1071h209l94 -872h4l487 872h197l-635 -1071h-192z" />
<glyph unicode="w" horiz-adv-x="1478" d="M256 1071h197l26 -842h4l385 842h201l31 -842h4l395 842h180l-538 -1071h-187l-41 829h-4l-385 -829h-186z" />
<glyph unicode="x" horiz-adv-x="1024" d="M23 0l493 551l-248 520h232l168 -377l327 377h222l-474 -520l261 -551h-230l-180 403l-344 -403h-227z" />
<glyph unicode="y" horiz-adv-x="1024" d="M31 -422l35 164q47 -18 104 -18q70 0 109 40q31 35 135 207l-164 1100h205l100 -872h4l471 872h199q-199 -350 -608 -1051q-143 -238 -199 -311q-74 -96 -139 -125q-53 -22 -169 -22h-10q-18 0 -73 16z" />
<glyph unicode="z" horiz-adv-x="1024" d="M63 0l31 141l811 781h-596l31 149h829l-30 -147l-803 -774h657l-32 -150h-898z" />
<glyph unicode="{" horiz-adv-x="684" d="M188 479l25 123q72 0 135.5 74t85.5 186l76 352q25 121 106 195q76 70 158 70h137l-26 -133h-90q-94 0 -131 -168l-74 -349q-29 -131 -121 -215q-63 -57 -121 -71v-4q41 -14 76 -54q51 -59 51 -153q0 -41 -8 -86l-74 -346q-10 -45 -10 -78q0 -90 68 -90h90l-29 -133h-137 q-68 0 -114 51t-46 137q0 37 8 76l74 350q10 49 10 92q0 78 -32 126t-87 48z" />
<glyph unicode="|" horiz-adv-x="532" d="M184 -39l330 1548h150l-330 -1548h-150z" />
<glyph unicode="}" horiz-adv-x="684" d="M0 -401l29 133h90q94 0 131 168l74 346q29 139 120 223q59 51 121 70v4q-39 10 -76 55q-51 61 -51 154q0 37 8 77l74 349q10 45 10 77q0 90 -67 91h-90l26 133h138q70 0 115.5 -51.5t45.5 -137.5q0 -37 -8 -76l-76 -352q-8 -45 -8 -88q0 -78 32 -125t87 -47l-25 -123 q-72 0 -135 -75.5t-88 -190.5l-74 -350q-27 -121 -104.5 -192.5t-161.5 -71.5h-137z" />
<glyph unicode="~" horiz-adv-x="1196" d="M227 483q129 176 293 176q84 0 215 -65q145 -74 193 -74q84 1 211 148l49 -115q-147 -176 -293 -176q-86 0 -195 67q-115 72 -219 72q-106 0 -205 -147z" />
<glyph horiz-adv-x="1019" d="M-84 535l43 96h115q6 51 24 149h-135l43 99h121q84 229 221 374q170 180 383 181q193 -1 338 -138l-47 -319l-98 12q0 322 -193 322q-211 0 -330 -432h353l-43 -99h-336q-12 -49 -33 -149h301l-43 -96h-274q-12 -84 -13 -152q0 -113 43 -186q53 -88 160 -88 q119 0 207 139q49 78 104 244l113 -21l-111 -385q-158 -109 -325 -109q-227 0 -340 173q-96 145 -96 385h-152z" />
<glyph unicode="&#xa1;" horiz-adv-x="681" d="M158 -399l102 485l184 635h101l-86 -635l-103 -485h-198zM424 862l45 209h199l-45 -209h-199z" />
<glyph unicode="&#xa2;" d="M195 352q0 70 16 150q61 287 227 443.5t404 156.5q57 0 86 -12l92 186h80l-94 -205q68 -20 118 -82q72 -86 72 -221q0 -28 -4 -61h-168q-4 172 -94 208l-393 -790q25 -8 69 -8q236 0 350 258h174q-51 -152 -167 -262q-160 -152 -383 -152q-33 0 -121 14l-107 -211h-84 l119 234q-193 102 -192 354zM379 391q0 -168 90 -231l387 780q-16 6 -59 6q-139 0 -244 -106q-115 -115 -162 -338q-12 -55 -12 -111z" />
<glyph unicode="&#xa3;" d="M100 119q160 92 252 217q63 88 80 166q12 59 -8 147h-219l28 129h142q-37 137 -37 201q0 37 6 74q35 160 164 272q164 145 432 145q182 0 277 -100q82 -86 81 -231q0 -51 -12 -105l-6 -30h-180l4 18q8 39 8 74q0 98 -60.5 158.5t-166.5 60.5q-150 0 -250 -94 q-78 -74 -96 -158q-6 -29 -7 -59q1 -79 52 -226h342l-29 -129h-283q4 -70 -10 -135q-45 -213 -328 -381l5 4v-4q150 76 284 76q68 0 179.5 -36t148.5 -36q92 0 170 64l55 -135q-150 -98 -280 -99q-59 0 -194.5 46t-215.5 46q-106 0 -256 -82z" />
<glyph unicode="&#xa4;" d="M123 295l135 115q-51 82 -51 194q0 115 49 230.5t131 191.5l-88 111l119 98l92 -115q143 104 319 105q176 0 275 -105l141 115l78 -98l-137 -111q51 -76 51 -190q0 -250 -180 -426l86 -115l-113 -92l-88 119q-145 -113 -328 -113q-184 0 -282 113l-137 -119zM362 641 q0 -123 78 -206t205 -83q166 0 301 137.5t135 303.5q0 123 -78.5 205.5t-203.5 82.5q-166 0 -301.5 -136t-135.5 -304z" />
<glyph unicode="&#xa5;" d="M166 379l24 117h394l39 174h-394l25 116h315l-264 623h205l231 -604l486 604h205l-527 -623h318l-25 -116h-395l-39 -174h395l-24 -117h-396l-80 -379h-180l80 379h-393z" />
<glyph unicode="&#xa6;" horiz-adv-x="532" d="M184 -39l127 602h150l-127 -602h-150zM393 942l121 567h150l-121 -567h-150z" />
<glyph unicode="&#xa7;" d="M156 -115q0 49 12 109h180q-8 -41 -8 -76q0 -154 160 -154q215 0 250 170q4 16 4 33q0 66 -82 129l-369 287q-86 68 -86 188q0 31 6 62q25 121 101 201q59 63 172 122q-59 84 -60 150q0 168 144 289q137 115 307 114q127 0 207 -53q102 -68 102 -213q0 -49 -12 -108h-174 q6 45 6 69q0 150 -162 150q-74 0 -133 -37q-74 -45 -92 -129q-2 -14 -2 -29q0 -80 112 -155l262 -177q162 -109 162 -252q0 -35 -8 -75q-41 -195 -281 -328q63 -88 64 -168q0 -31 -6 -65q-33 -150 -172 -244q-127 -86 -271 -86q-334 0 -333 276zM397 629q0 -80 60 -125 l334 -250q162 92 186 207q4 20 4 41q0 92 -90 155l-309 220q-152 -70 -181 -199q-4 -27 -4 -49z" />
<glyph unicode="&#xa8;" horiz-adv-x="681" d="M344 1237l45 209h186l-45 -209h-186zM676 1237l45 209h186l-45 -209h-186z" />
<glyph unicode="&#xa9;" horiz-adv-x="1509" d="M111 569q0 82 18 168q70 330 350 553q274 219 600 219q276 0 455.5 -170t179.5 -438q0 -80 -16 -164q-72 -332 -349 -554t-599 -222q-281 0 -460 170t-179 438zM268 588q0 -221 140.5 -359.5t367.5 -138.5q266 0 486.5 184.5t279.5 462.5q14 74 14 146q0 219 -140 358 t-365 139q-266 0 -487.5 -184.5t-278.5 -458.5q-16 -76 -17 -149zM471 621q0 57 14 118q43 209 193.5 341t355.5 132q152 0 240 -82q90 -88 78 -239h-138q0 86 -55 136t-151 50q-141 0 -238.5 -94t-128.5 -242q-10 -45 -10 -88q0 -113 62.5 -184.5t174.5 -71.5 q96 0 174 54.5t109 140.5h139q-59 -152 -183 -241t-267 -89q-172 0 -270.5 99.5t-98.5 259.5z" />
<glyph unicode="&#xaa;" horiz-adv-x="757" d="M205 623l20 98h606l-20 -98h-606zM260 977q0 18 4 39q39 182 275 209l184 20q51 6 65 78q18 80 -137 80q-145 0 -182 -109h-111q55 215 336 215q74 0 131 -22q94 -37 95 -121q0 -18 -5 -37l-77 -364q-8 -39 28 -39q10 0 41 4l-20 -90q-53 -10 -68 -11q-102 0 -102 74 q0 12 2 31q-127 -104 -275 -105q-84 0 -134 40t-50 108zM395 1008q1 -72 101 -72q84 0 156.5 44t86.5 107l17 80q-25 -20 -197 -41q-145 -16 -160 -88q-4 -16 -4 -30z" />
<glyph unicode="&#xab;" d="M299 473l41 189l375 251l-39 -180l-250 -166l180 -166l-39 -180zM719 473l41 189l375 251l-39 -180l-250 -166l180 -166l-39 -180z" />
<glyph unicode="&#xac;" horiz-adv-x="1196" d="M217 649l33 150h1036l-123 -578h-149l90 428h-887z" />
<glyph unicode="&#xad;" horiz-adv-x="569" />
<glyph unicode="&#xae;" horiz-adv-x="1509" d="M111 569q0 82 18 168q70 330 350 553q274 219 600 219q276 0 455.5 -170t179.5 -438q0 -80 -16 -164q-72 -332 -349 -554t-599 -222q-281 0 -460 170t-179 438zM268 588q0 -221 140.5 -359.5t367.5 -138.5q266 0 486.5 184.5t279.5 462.5q14 74 14 146q0 219 -140 358 t-365 139q-266 0 -487.5 -184.5t-278.5 -458.5q-16 -76 -17 -149zM520 289l191 893h340q268 0 268 -183q0 -33 -8 -71q-45 -217 -283 -246l170 -393h-151l-154 387h-156l-82 -387h-135zM762 791h162q106 0 155 20q74 33 92 125q4 16 5 31q0 100 -170 100h-185z" />
<glyph unicode="&#xaf;" horiz-adv-x="681" d="M293 1284l24 117h641l-24 -117h-641z" />
<glyph unicode="&#xb0;" horiz-adv-x="819" d="M346 1073q0 33 6 68q29 127 132.5 213t230.5 86q111 0 177 -64.5t66 -167.5q0 -32 -8 -67q-27 -127 -130 -213t-232 -86q-109 0 -175.5 64.5t-66.5 166.5zM446 1100q0 -72 46.5 -121t115.5 -49q90 0 170 80t80 172q0 72 -46 121t-116 49q-92 0 -171 -80t-79 -172z" />
<glyph unicode="&#xb1;" horiz-adv-x="1196" d="M80 0l33 150h1036l-33 -150h-1036zM199 557l30 150h445l71 329h150l-72 -329h443l-31 -150h-442l-70 -330h-150l70 330h-444z" />
<glyph unicode="&#xb2;" horiz-adv-x="681" d="M131 575q59 231 285 343l137 67q113 55 143 80q57 45 74 121q6 18 6 35q0 100 -149 100q-169 -1 -226 -191h-122q66 309 389 310q113 0 182.5 -54.5t69.5 -148.5q0 -27 -7 -55q-23 -106 -110 -178q-59 -49 -197 -113l-100 -47q-125 -57 -195 -144h500l-27 -125h-653z" />
<glyph unicode="&#xb3;" horiz-adv-x="681" d="M184 772q0 31 4 68h140q-4 -29 -4 -49q0 -119 145 -119q197 0 227 145q4 23 4 41q0 106 -184 107h-47l23 104h55q82 0 140 41t58 121q0 90 -141 90q-156 0 -201 -164h-124q25 115 102 189q100 94 266 94q117 0 181.5 -49.5t64.5 -130.5q0 -23 -4 -48q-31 -143 -160 -178 v-4q119 -33 119 -145q0 -25 -6 -54q-25 -117 -121 -192q-109 -86 -281 -86q-90 0 -164 39q-92 49 -92 180z" />
<glyph unicode="&#xb4;" horiz-adv-x="681" d="M508 1214l244 289h221l-328 -289h-137z" />
<glyph unicode="&#xb5;" d="M49 -424l318 1495h180l-152 -711q-8 -45 -8 -81q0 -154 166 -154q156 0 258 119q82 96 113 237l125 590h180l-228 -1071h-170l33 156l-2 4q-158 -190 -381 -191q-111 0 -149 70h-4l-99 -463h-180z" />
<glyph unicode="&#xb6;" horiz-adv-x="1099" d="M258 1006q0 37 8 75q84 389 557 389h508l-389 -1824h-149l362 1702h-244l-362 -1702h-150l226 1059q-170 0 -268.5 82.5t-98.5 218.5z" />
<glyph unicode="&#xb7;" horiz-adv-x="569" d="M264 492q0 59 49.5 106t110.5 47q43 0 72.5 -29.5t29.5 -72.5q0 -59 -49 -106.5t-110 -47.5q-45 0 -74 30t-29 73z" />
<glyph unicode="&#xb8;" horiz-adv-x="1366" d="M29 0l866 1470h225l219 -1470h-217l-55 428h-590l-244 -428h-204zM578 604h456l-80 647h-4zM788 1812h177l96 -231h-109z" />
<glyph unicode="&#xb9;" horiz-adv-x="681" d="M340 1182l18 94q129 8 177 33q63 33 110 131h115l-182 -865h-146l129 607h-221z" />
<glyph unicode="&#xba;" horiz-adv-x="747" d="M205 623l20 98h606l-20 -98h-606zM289 1067q0 47 10 102q39 182 164 271q98 70 233 69q262 0 262 -237q0 -48 -12 -103q-39 -182 -162 -270q-98 -70 -233 -70q-262 0 -262 238zM428 1090q0 -154 145 -154q187 0 236 233q10 43 10 80q0 154 -145 154q-186 0 -238 -234 q-8 -43 -8 -79z" />
<glyph unicode="&#xbb;" d="M246 221l39 180l250 166l-181 166l39 180l269 -251l-41 -189zM666 221l39 180l249 166l-180 166l39 180l268 -251l-41 -189z" />
<glyph unicode="&#xbc;" horiz-adv-x="1708" d="M307 -39l1219 1479h116l-1218 -1479h-117zM401 1188l19 88q129 8 176 33q63 33 111 131h108l-182 -865h-139l129 613h-222zM899 193l27 122l538 549h131l-118 -553h137l-25 -118h-137l-41 -193h-131l41 193h-422zM1051 311h295l81 383h-4z" />
<glyph unicode="&#xbd;" horiz-adv-x="1708" d="M233 -39l1219 1479h117l-1219 -1479h-117zM340 1182l18 94q129 8 177 33q63 33 110 131h115l-182 -865h-146l129 607h-221zM930 0q59 231 284 342l140 68q113 55 143 79q55 45 72 121q6 18 6 35q0 100 -150 100q-168 0 -223 -190h-123q66 309 389 309q111 0 180.5 -54 t69.5 -148q0 -27 -6 -56q-23 -106 -108 -178q-61 -49 -197 -113l-102 -47q-123 -57 -195 -143h500l-27 -125h-653z" />
<glyph unicode="&#xbe;" horiz-adv-x="1708" d="M266 772q0 31 4 68h140q-4 -29 -4 -49q0 -119 145 -119q197 0 227 145q4 23 4 41q0 106 -184 107h-47l22 104h56q82 0 140 41t58 121q0 90 -141 90q-156 0 -201 -164h-125q25 115 103 189q100 94 266 94q117 0 181.5 -49.5t64.5 -130.5q0 -23 -4 -48q-31 -143 -160 -178 v-4q119 -33 119 -145q0 -25 -6 -54q-25 -117 -121 -192q-109 -86 -281 -86q-90 0 -164 39q-92 49 -92 180zM428 -39l1219 1479h116l-1218 -1479h-117zM1010 193l26 122l539 549h131l-119 -553h137l-24 -118h-137l-41 -193h-131l41 193h-422zM1161 311h295l82 383h-4z" />
<glyph unicode="&#xbf;" horiz-adv-x="1251" d="M174 -104q0 45 10 94q20 96 80 170q51 61 184.5 167.5t172.5 157.5q59 78 86 217h180q-35 -164 -99 -251q-45 -66 -190 -189q-133 -113 -164 -151q-43 -49 -59 -134q-6 -27 -6 -53q0 -180 202 -180q272 0 342 324h181q-35 -137 -70 -201q-57 -106 -174 -184 q-141 -94 -318 -95q-156 0 -253 78q-104 84 -105 230zM727 866l45 209h199l-45 -209h-199z" />
<glyph unicode="&#xc0;" horiz-adv-x="1366" d="M29 0l866 1470h225l219 -1470h-217l-55 428h-590l-244 -428h-204zM578 604h456l-80 647h-4zM788 1812h177l96 -231h-109z" />
<glyph unicode="&#xc1;" horiz-adv-x="1366" d="M29 0l866 1470h225l219 -1470h-217l-55 428h-590l-244 -428h-204zM578 604h456l-80 647h-4zM954 1579l195 231h176l-262 -231h-109z" />
<glyph unicode="&#xc2;" horiz-adv-x="1366" d="M29 0l866 1470h225l219 -1470h-217l-55 428h-590l-244 -428h-204zM578 604h456l-80 647h-4zM784 1546l185 203h133l98 -203h-115l-65 133l-123 -133h-113z" />
<glyph unicode="&#xc3;" horiz-adv-x="1366" d="M29 0l866 1470h225l219 -1470h-217l-55 428h-590l-244 -428h-204zM578 604h456l-80 647h-4zM745 1581q53 154 183 154q39 0 92 -23l29 -12q43 -18 63 -19q59 0 84 66h72q-20 -63 -64 -107q-49 -49 -112 -49q-27 0 -80 19l-35 12q-63 23 -82 23q-47 0 -80 -64h-70z" />
<glyph unicode="&#xc4;" horiz-adv-x="1366" d="M29 0l866 1470h225l219 -1470h-217l-55 428h-590l-244 -428h-204zM578 604h456l-80 647h-4zM770 1636l45 209h186l-45 -209h-186zM1102 1636l45 209h186l-45 -209h-186z" />
<glyph unicode="&#xc5;" horiz-adv-x="1366" d="M29 0l866 1470h225l219 -1470h-217l-55 428h-590l-244 -428h-204zM578 604h456l-80 647h-4zM856 1675q0 92 70 161.5t164 69.5q70 0 110.5 -40t40.5 -105q0 -92 -69.5 -162t-161.5 -70q-70 0 -112 40t-42 106zM940 1695q0 -84 86 -84q51 0 91 39t40 90q0 84 -86 84 q-51 0 -91 -39t-40 -90z" />
<glyph unicode="&#xc6;" horiz-adv-x="2048" d="M16 0l912 1470h1319l-39 -176h-799l-94 -450h729l-39 -176h-729l-105 -492h814l-37 -176h-1012l90 428h-543l-252 -428h-215zM594 604h471l145 690h-198z" />
<glyph unicode="&#xc7;" horiz-adv-x="1478" d="M219 498q0 113 29 245q74 344 303 555t547 211q250 0 383 -131q121 -115 121 -299q-1 -26 -3 -51h-192q0 305 -348 305q-209 0 -371 -147q-174 -158 -233 -436q-27 -125 -27 -226q0 -387 383 -387q131 0 250 74q164 102 256 330h192q-127 -354 -415 -498 q-166 -82 -351 -82q-229 0 -366 125q-158 139 -158 412zM428 0l866 1470h225l219 -1470h-217l-55 428h-590l-244 -428h-204zM977 604h456l-80 647h-4zM1187 1812h177l96 -231h-109z" />
<glyph unicode="&#xc8;" horiz-adv-x="1366" d="M176 0l313 1470h1072l-39 -176h-873l-94 -450h805l-39 -176h-805l-104 -492h886l-36 -176h-1086zM805 1831h176l96 -232h-108z" />
<glyph unicode="&#xc9;" horiz-adv-x="1366" d="M176 0l313 1470h1072l-39 -176h-873l-94 -450h805l-39 -176h-805l-104 -492h886l-36 -176h-1086zM967 1599l194 232h176l-262 -232h-108z" />
<glyph unicode="&#xca;" horiz-adv-x="1366" d="M176 0l313 1470h1072l-39 -176h-873l-94 -450h805l-39 -176h-805l-104 -492h886l-36 -176h-1086zM784 1569l185 203h133l98 -203h-115l-65 133l-123 -133h-113z" />
<glyph unicode="&#xcb;" horiz-adv-x="1366" d="M176 0l313 1470h1072l-39 -176h-873l-94 -450h805l-39 -176h-805l-104 -492h886l-36 -176h-1086zM770 1636l45 209h186l-45 -209h-186zM1102 1636l45 209h186l-45 -209h-186z" />
<glyph unicode="&#xcc;" horiz-adv-x="569" d="M186 0l314 1470h198l-313 -1470h-199zM381 1829h176l96 -232h-108z" />
<glyph unicode="&#xcd;" horiz-adv-x="569" d="M186 0l314 1470h198l-313 -1470h-199zM545 1595l194 232h176l-262 -232h-108z" />
<glyph unicode="&#xce;" horiz-adv-x="569" d="M186 0l314 1470h198l-313 -1470h-199zM330 1613l264 289h191l141 -289h-164l-94 191l-176 -191h-162z" />
<glyph unicode="&#xcf;" horiz-adv-x="569" d="M186 0l314 1470h198l-313 -1470h-199zM373 1636l45 209h186l-45 -209h-186zM705 1636l45 209h186l-45 -209h-186z" />
<glyph unicode="&#xd0;" horiz-adv-x="1478" d="M141 668l39 176h166l133 626h596q233 0 361.5 -136t128.5 -369q0 -98 -25 -209q-49 -236 -180 -424q-227 -332 -606 -332h-588l141 668h-166zM401 170h385q197 0 343.5 149.5t203.5 423.5q23 106 23 195q0 362 -344 362h-371l-96 -456h393l-39 -176h-393z" />
<glyph unicode="&#xd1;" horiz-adv-x="1478" d="M156 0l313 1470h236l481 -1187h4l254 1187h192l-313 -1470h-223l-496 1188h-4l-252 -1188h-192zM760 1640q76 219 260 219q63 0 131 -30l41 -19q59 -27 92 -27q82 1 121 95h103q-31 -96 -98.5 -160t-153.5 -64q-43 0 -115 27l-49 18q-82 31 -119 31q-68 0 -115 -90h-98z " />
<glyph unicode="&#xd2;" horiz-adv-x="1593" d="M215 537q0 102 21 198q63 295 260 506q250 268 622 268q274 0 423 -150.5t149 -422.5q-1 -105 -21 -201q-61 -293 -260 -506q-250 -268 -621 -268q-276 0 -424.5 150.5t-148.5 425.5zM422 563q0 -197 104.5 -311.5t298.5 -114.5q246 0 424 180q162 166 215 418 q18 86 19 172q0 197 -104.5 311.5t-299.5 114.5q-246 0 -424 -180q-162 -164 -215 -418q-18 -86 -18 -172zM952 1849h176l97 -231h-109z" />
<glyph unicode="&#xd3;" horiz-adv-x="1593" d="M215 537q0 102 21 198q63 295 260 506q250 268 622 268q274 0 423 -150.5t149 -422.5q-1 -105 -21 -201q-61 -293 -260 -506q-250 -268 -621 -268q-276 0 -424.5 150.5t-148.5 425.5zM422 563q0 -197 104.5 -311.5t298.5 -114.5q246 0 424 180q162 166 215 418 q18 86 19 172q0 197 -104.5 311.5t-299.5 114.5q-246 0 -424 -180q-162 -164 -215 -418q-18 -86 -18 -172zM1116 1616l195 231h176l-262 -231h-109z" />
<glyph unicode="&#xd4;" horiz-adv-x="1593" d="M215 537q0 102 21 198q63 295 260 506q250 268 622 268q274 0 423 -150.5t149 -422.5q-1 -105 -21 -201q-61 -293 -260 -506q-250 -268 -621 -268q-276 0 -424.5 150.5t-148.5 425.5zM422 563q0 -197 104.5 -311.5t298.5 -114.5q246 0 424 180q162 166 215 418 q18 86 19 172q0 197 -104.5 311.5t-299.5 114.5q-246 0 -424 -180q-162 -164 -215 -418q-18 -86 -18 -172zM932 1595l184 203h133l99 -203h-115l-66 134l-123 -134h-112z" />
<glyph unicode="&#xd5;" horiz-adv-x="1593" d="M215 537q0 102 21 198q63 295 260 506q250 268 622 268q274 0 423 -150.5t149 -422.5q-1 -105 -21 -201q-61 -293 -260 -506q-250 -268 -621 -268q-276 0 -424.5 150.5t-148.5 425.5zM422 563q0 -197 104.5 -311.5t298.5 -114.5q246 0 424 180q162 166 215 418 q18 86 19 172q0 197 -104.5 311.5t-299.5 114.5q-246 0 -424 -180q-162 -164 -215 -418q-18 -86 -18 -172zM885 1630q53 154 182 154q39 0 92 -23l29 -12q43 -18 63 -18q59 -1 84 65h72q-20 -63 -64 -106q-49 -49 -112 -50q-27 0 -80 19l-35 12q-63 23 -82 23q-47 0 -80 -64 h-69z" />
<glyph unicode="&#xd6;" horiz-adv-x="1593" d="M215 537q0 98 21 198q63 293 260 506q250 268 622 268q303 0 451 -182q123 -150 123 -393q0 -99 -23 -199q-61 -293 -260 -506q-250 -268 -621 -268q-305 0 -452 182q-121 150 -121 394zM422 563q0 -195 105.5 -310.5t297.5 -115.5q236 0 412 170q172 164 227 428 q20 90 21 172q0 195 -105.5 310.5t-300.5 115.5q-236 0 -408.5 -167t-230.5 -431q-18 -90 -18 -172zM885 1636l45 209h186l-45 -209h-186zM1217 1636l45 209h186l-45 -209h-186z" />
<glyph unicode="&#xd7;" horiz-adv-x="1196" d="M102 104l502 414l-325 414l129 104l323 -411l502 411l82 -104l-500 -414l324 -414l-127 -104l-326 412l-502 -412z" />
<glyph unicode="&#xd8;" horiz-adv-x="1366" d="M176 0l313 1470h1072l-39 -176h-873l-94 -450h805l-39 -176h-805l-104 -492h886l-36 -176h-1086zM805 1831h176l96 -232h-108z" />
<glyph unicode="&#xd9;" horiz-adv-x="1478" d="M252 360q0 61 14 129l209 981h199l-197 -925q-14 -68 -14 -129q0 -279 299 -279q188 0 313 109q119 104 160 295l199 929h198l-202 -954q-55 -262 -248 -408.5t-463 -146.5q-209 0 -332 94q-135 102 -135 305zM834 1800h176l96 -231h-109z" />
<glyph unicode="&#xda;" horiz-adv-x="1478" d="M252 360q0 61 14 129l209 981h199l-197 -925q-14 -68 -14 -129q0 -279 299 -279q188 0 313 109q119 104 160 295l199 929h198l-202 -954q-55 -262 -248 -408.5t-463 -146.5q-209 0 -332 94q-135 102 -135 305zM995 1569l195 231h176l-262 -231h-109z" />
<glyph unicode="&#xdb;" horiz-adv-x="1478" d="M252 360q0 61 14 129l209 981h199l-197 -925q-16 -70 -16 -129q0 -279 301 -279q164 0 280 82q145 102 193 322l199 929h198l-202 -954q-51 -240 -230 -391q-193 -164 -481 -164q-236 0 -359 117q-109 104 -108 282zM784 1613l264 289h191l141 -289h-164l-94 191 l-176 -191h-162z" />
<glyph unicode="&#xdc;" horiz-adv-x="1478" d="M252 360q0 61 14 129l209 981h199l-197 -925q-16 -70 -16 -129q0 -279 301 -279q164 0 280 82q145 102 193 322l199 929h198l-202 -954q-51 -240 -230 -391q-193 -164 -481 -164q-236 0 -359 117q-109 104 -108 282zM827 1636l45 209h186l-45 -209h-186zM1159 1636 l45 209h186l-45 -209h-186z" />
<glyph unicode="&#xdd;" horiz-adv-x="1366" d="M342 1470h231l271 -706l573 706h234l-744 -878l-125 -592h-198l125 592zM946 1567l195 231h176l-262 -231h-109z" />
<glyph unicode="&#xde;" horiz-adv-x="1366" d="M176 0l313 1470h199l-53 -243h463q172 0 266 -86t94 -230q0 -221 -157.5 -377.5t-382.5 -156.5h-463l-80 -377h-199zM492 547h395q299 0 354 264q8 37 8 70q0 176 -245 176h-404z" />
<glyph unicode="&#xdf;" horiz-adv-x="1251" d="M137 0l232 1090q39 182 182 288q152 113 377 113q199 0 309.5 -78t110.5 -215q0 -37 -11 -76q-41 -195 -231 -303q84 -25 131 -106q43 -72 43 -162q0 -33 -6 -64q-55 -260 -234 -395q-162 -123 -393 -123q-43 0 -106 15l32 153q45 -6 91 -6q348 0 411 307q10 45 10 82 q0 205 -297 205q-47 0 -81 -8l34 162q37 -4 47 -5q152 0 252 64q119 74 119 215q0 182 -266 182q-164 0 -250 -80q-74 -68 -104 -211l-222 -1044h-180z" />
<glyph unicode="&#xe0;" d="M125 209q0 31 8 70q61 295 397 335l306 37q61 8 94 60q31 45 31 108q0 133 -220 133q-212 0 -290 -207h-166q88 356 518 357q113 0 201 -37q141 -59 141 -197q0 -27 -8 -65l-131 -617q-2 -10 -2 -20q0 -43 49 -43q16 0 61 8l-29 -131q-82 -20 -102 -20q-160 0 -160 118 q0 18 4 45q-197 -174 -424 -174q-119 0 -194 60q-84 63 -84 180zM319 248q0 -129 160 -129q123 0 236 65q124 74 149 187l39 176q-53 -35 -311 -68q-236 -31 -266 -174q-6 -29 -7 -57zM655 1436h158l88 -209h-98z" />
<glyph unicode="&#xe1;" d="M125 209q0 31 8 70q61 295 397 335l306 37q61 8 94 60q31 45 31 108q0 133 -220 133q-212 0 -290 -207h-166q88 356 518 357q113 0 201 -37q141 -59 141 -197q0 -27 -8 -65l-131 -617q-2 -10 -2 -20q0 -43 49 -43q16 0 61 8l-29 -131q-82 -20 -102 -20q-160 0 -160 118 q0 18 4 45q-197 -174 -424 -174q-119 0 -194 60q-84 63 -84 180zM319 248q0 -129 160 -129q123 0 236 65q124 74 149 187l39 176q-53 -35 -311 -68q-236 -31 -266 -174q-6 -29 -7 -57zM807 1227l176 209h158l-236 -209h-98z" />
<glyph unicode="&#xe2;" d="M125 209q0 31 8 70q61 295 397 335l306 37q61 8 94 60q31 45 31 108q0 133 -220 133q-212 0 -290 -207h-166q88 356 518 357q113 0 201 -37q141 -59 141 -197q0 -27 -8 -65l-131 -617q-2 -10 -2 -20q0 -43 49 -43q16 0 61 8l-29 -131q-82 -20 -102 -20q-160 0 -160 118 q0 18 4 45q-197 -174 -424 -174q-119 0 -194 60q-84 63 -84 180zM319 248q0 -129 160 -129q123 0 236 65q124 74 149 187l39 176q-53 -35 -311 -68q-236 -31 -266 -174q-6 -29 -7 -57zM641 1178l166 182h121l88 -182h-105l-57 118l-111 -118h-102z" />
<glyph unicode="&#xe3;" d="M125 209q0 31 8 70q61 295 397 335l306 37q61 8 94 60q31 45 31 108q0 133 -220 133q-212 0 -290 -207h-166q88 356 518 357q113 0 201 -37q141 -59 141 -197q0 -27 -8 -65l-131 -617q-2 -10 -2 -20q0 -43 49 -43q16 0 61 8l-29 -131q-82 -20 -102 -20q-160 0 -160 118 q0 18 4 45q-197 -174 -424 -174q-119 0 -194 60q-84 63 -84 180zM319 248q0 -129 160 -129q123 0 236 65q124 74 149 187l39 176q-53 -35 -311 -68q-236 -31 -266 -174q-6 -29 -7 -57zM606 1229q45 139 164 139q37 0 82 -20l27 -13q35 -16 57 -16q51 0 76 59h63 q-16 -57 -59 -98t-98 -41q-23 0 -72 16l-31 11q-61 20 -74 20q-41 0 -73 -57h-62z" />
<glyph unicode="&#xe4;" d="M125 209q0 33 8 70q63 295 397 335l306 37q96 12 120 127q4 23 5 41q0 133 -220 133q-214 0 -290 -207h-166q88 356 518 357q113 0 201 -37q141 -59 141 -197q0 -31 -8 -65l-131 -617q-2 -12 -2 -20q0 -43 49 -43q18 0 61 8l-29 -131q-82 -20 -102 -20q-160 0 -160 118 q0 20 4 45q-197 -174 -424 -174q-127 0 -202.5 64.5t-75.5 175.5zM317 248q0 -129 162 -129q131 0 248 74t137 178l39 176q-51 -35 -311 -68q-236 -31 -266 -174q-8 -31 -9 -57zM573 1237l45 209h186l-45 -209h-186zM905 1237l45 209h186l-45 -209h-186z" />
<glyph unicode="&#xe5;" d="M125 209q0 33 8 70q63 295 397 335l306 37q96 12 120 127q4 23 5 41q0 133 -220 133q-214 0 -290 -207h-166q88 356 518 357q113 0 201 -37q141 -59 141 -197q0 -31 -8 -65l-131 -617q-2 -12 -2 -20q0 -43 49 -43q18 0 61 8l-29 -131q-82 -20 -102 -20q-160 0 -160 118 q0 20 4 45q-197 -174 -424 -174q-127 0 -202.5 64.5t-75.5 175.5zM317 248q0 -129 162 -129q131 0 248 74t137 178l39 176q-51 -35 -311 -68q-236 -31 -266 -174q-8 -31 -9 -57zM667 1317q0 92 70 161.5t164 69.5q70 0 110.5 -40t40.5 -105q0 -92 -69.5 -162t-161.5 -70 q-70 0 -112 40t-42 106zM751 1337q0 -84 86 -84q51 0 91 39t40 90q0 84 -86 84q-51 0 -91 -39t-40 -90z" />
<glyph unicode="&#xe6;" horiz-adv-x="1593" d="M215 537q0 102 21 198q63 295 260 506q250 268 622 268q274 0 423 -150.5t149 -422.5q-1 -105 -21 -201q-61 -293 -260 -506q-250 -268 -621 -268q-276 0 -424.5 150.5t-148.5 425.5zM422 563q0 -197 104.5 -311.5t298.5 -114.5q246 0 424 180q162 166 215 418 q18 86 19 172q0 197 -104.5 311.5t-299.5 114.5q-246 0 -424 -180q-162 -164 -215 -418q-18 -86 -18 -172zM952 1849h176l97 -231h-109z" />
<glyph unicode="&#xe7;" horiz-adv-x="1024" d="M152 356q0 72 18 150q55 264 213 422q172 174 426 174q170 0 254 -98q70 -82 70 -220q-1 -36 -5 -73h-174q12 229 -204 229q-154 0 -261 -131q-86 -106 -120 -272q-20 -92 -21 -166q0 -246 225 -246q92 0 177.5 66.5t132.5 187.5h174q-51 -160 -164 -268 q-147 -141 -358 -142q-184 0 -283.5 105.5t-99.5 281.5zM201 0l866 1470h225l219 -1470h-217l-55 428h-590l-244 -428h-204zM750 604h456l-80 647h-4zM960 1812h177l96 -231h-109z" />
<glyph unicode="&#xe8;" d="M174 354q0 76 16 152q57 262 211 420q172 176 428 176q356 0 357 -397q0 -102 -27 -228h-782q-14 -66 -15 -119q0 -233 250 -233q119 0 217 76q85 63 105 135h180q-16 -53 -76 -131q-178 -236 -483 -236q-180 0 -280.5 102.5t-100.5 282.5zM406 621h595q8 47 9 88 q0 231 -238 231q-125 0 -231 -96t-135 -223zM655 1436h158l88 -209h-98z" />
<glyph unicode="&#xe9;" d="M174 354q0 76 16 152q57 262 211 420q172 176 428 176q356 0 357 -397q0 -102 -27 -228h-782q-14 -66 -15 -119q0 -233 250 -233q119 0 217 76q85 63 105 135h180q-16 -53 -76 -131q-178 -236 -483 -236q-180 0 -280.5 102.5t-100.5 282.5zM406 621h595q8 47 9 88 q0 231 -238 231q-125 0 -231 -96t-135 -223zM807 1227l176 209h158l-236 -209h-98z" />
<glyph unicode="&#xea;" d="M174 354q0 76 16 152q57 262 211 420q172 176 428 176q356 0 357 -397q0 -102 -27 -228h-782q-14 -66 -15 -119q0 -233 250 -233q119 0 217 76q85 63 105 135h180q-16 -53 -76 -131q-178 -236 -483 -236q-180 0 -280.5 102.5t-100.5 282.5zM406 621h595q8 47 9 88 q0 231 -238 231q-125 0 -231 -96t-135 -223zM641 1178l166 182h121l88 -182h-105l-57 118l-111 -118h-102z" />
<glyph unicode="&#xeb;" d="M172 356q0 72 18 150q55 264 213 422q172 174 426 174q356 0 357 -395q0 -104 -27 -230h-782q-14 -63 -15 -117q0 -236 250 -235q117 0 215 76q87 65 107 135h180q-20 -57 -76 -131q-76 -102 -178 -162q-125 -74 -305 -74q-184 0 -283.5 105.5t-99.5 281.5zM406 621h595 q8 45 9 84q0 236 -238 235q-123 0 -230 -96t-136 -223zM573 1237l45 209h186l-45 -209h-186zM905 1237l45 209h186l-45 -209h-186z" />
<glyph unicode="&#xec;" horiz-adv-x="454" d="M137 0l228 1071h180l-228 -1071h-180zM258 1386h158l88 -208h-98z" />
<glyph unicode="&#xed;" horiz-adv-x="454" d="M137 0l228 1071h180l-228 -1071h-180zM406 1180l176 209h157l-235 -209h-98z" />
<glyph unicode="&#xee;" horiz-adv-x="569" d="M195 0l227 1071h180l-227 -1071h-180zM246 1214l264 289h191l141 -289h-164l-94 191l-176 -191h-162z" />
<glyph unicode="&#xef;" horiz-adv-x="569" d="M195 0l227 1071h180l-227 -1071h-180zM289 1237l45 209h186l-45 -209h-186zM621 1237l45 209h186l-45 -209h-186z" />
<glyph unicode="&#xf0;" d="M166 379q0 256 170 467q182 225 432 225q168 0 248 -113l6 5q-31 158 -166 290l-281 -127l-67 86l266 117q-70 66 -160 107l168 73q96 -41 164 -104l240 104l78 -82l-242 -104q197 -225 197 -528q0 -92 -21 -185q-70 -334 -268 -504q-160 -137 -350 -137q-209 0 -318 123 q-96 109 -96 287zM356 408q0 -283 240 -283q172 0 287 156q80 109 108 239q12 53 13 113q0 283 -240 282q-172 0 -287 -155q-79 -109 -108 -240q-12 -53 -13 -112z" />
<glyph unicode="&#xf1;" d="M133 0l227 1071h170l-32 -151h4q164 182 362 182q309 0 310 -262q-1 -52 -13 -111l-155 -729h-181l140 659q16 70 16 119q0 162 -184 162q-104 0 -195 -70q-123 -94 -164 -286l-125 -584h-180zM465 1241q76 219 260 219q63 0 131 -30l41 -19q59 -27 92 -27q82 1 121 95 h103q-31 -96 -98.5 -160t-153.5 -64q-43 0 -115 27l-49 18q-82 31 -119 31q-68 0 -115 -90h-98z" />
<glyph unicode="&#xf2;" d="M170 387q0 276 176 490q187 225 457 225q190 0 292.5 -112.5t102.5 -303.5q0 -279 -176 -491q-184 -223 -459 -224q-188 0 -290.5 113t-102.5 303zM358 403q0 -276 238 -276q170 0 285 152q129 170 129 389q0 279 -240 278q-172 0 -285 -151q-127 -171 -127 -392z M655 1436h158l88 -209h-98z" />
<glyph unicode="&#xf3;" d="M170 387q0 276 176 490q187 225 457 225q190 0 292.5 -112.5t102.5 -303.5q0 -279 -176 -491q-184 -223 -459 -224q-188 0 -290.5 113t-102.5 303zM358 403q0 -276 238 -276q170 0 285 152q129 170 129 389q0 279 -240 278q-172 0 -285 -151q-127 -171 -127 -392z M807 1227l176 209h158l-236 -209h-98z" />
<glyph unicode="&#xf4;" d="M170 387q0 276 176 490q187 225 457 225q190 0 292.5 -112.5t102.5 -303.5q0 -279 -176 -491q-184 -223 -459 -224q-188 0 -290.5 113t-102.5 303zM358 403q0 -276 238 -276q170 0 285 152q129 170 129 389q0 279 -240 278q-172 0 -285 -151q-127 -171 -127 -392z M641 1178l166 182h121l88 -182h-105l-57 118l-111 -118h-102z" />
<glyph unicode="&#xf5;" d="M170 387q0 276 176 490q187 225 457 225q190 0 292.5 -112.5t102.5 -303.5q0 -279 -176 -491q-184 -223 -459 -224q-188 0 -290.5 113t-102.5 303zM358 403q0 -276 238 -276q170 0 285 152q129 170 129 389q0 279 -240 278q-172 0 -285 -151q-127 -171 -127 -392z M606 1229q45 139 164 139q37 0 82 -20l27 -13q35 -16 57 -16q51 0 76 59h63q-16 -57 -59 -98t-98 -41q-23 0 -72 16l-31 11q-61 20 -74 20q-41 0 -73 -57h-62z" />
<glyph unicode="&#xf6;" d="M170 387q0 274 176 487q187 228 457 228q199 0 303 -125q92 -111 92 -291q0 -274 -176 -487q-188 -227 -459 -228q-199 0 -301 125q-92 111 -92 291zM358 406q0 -279 238 -279q172 0 285 152q82 109 114 258q14 68 15 131q0 279 -240 278q-170 0 -285 -151 q-81 -108 -112 -258q-14 -68 -15 -131zM573 1237l45 209h186l-45 -209h-186zM905 1237l45 209h186l-45 -209h-186z" />
<glyph unicode="&#xf7;" horiz-adv-x="1196" d="M174 442l31 150h1036l-31 -150h-1036zM477 74q0 63 53 114.5t119 51.5q49 0 81 -32t32 -79q0 -63 -54.5 -115.5t-117.5 -52.5q-49 0 -81 32t-32 81zM653 907q0 63 54.5 114.5t117.5 51.5q49 0 81 -31.5t32 -78.5q0 -63 -54.5 -115.5t-117.5 -52.5q-47 0 -80 31.5 t-33 80.5z" />
<glyph unicode="&#xf8;" horiz-adv-x="1251" d="M59 8l162 148q-51 98 -51 231q0 274 176 487q186 227 457 228q207 0 309 -133l162 147l51 -53l-174 -160q47 -92 47 -217q0 -274 -178 -487q-186 -227 -457 -228q-199 0 -299 123l-153 -139zM371 293l600 547q-59 106 -201 106q-170 0 -285 -151q-82 -109 -112 -258 q-29 -135 -2 -244zM403 221q57 -94 193 -94q172 0 285 152q82 109 114 258q27 129 2 227z" />
<glyph unicode="&#xf9;" d="M193 213q0 39 10 88l164 770h180l-152 -711q-10 -47 -10 -79q0 -156 168 -156q145 0 248 108q90 96 123 248l125 590h180l-228 -1071h-170l33 156l-2 4q-156 -190 -381 -191q-129 0 -202 56q-86 63 -86 188zM623 1386h157l88 -208h-98z" />
<glyph unicode="&#xfa;" d="M193 213q0 39 10 88l164 770h180l-152 -711q-10 -47 -10 -79q0 -156 168 -156q145 0 248 108q90 96 123 248l125 590h180l-228 -1071h-170l33 156l-2 4q-156 -190 -381 -191q-129 0 -202 56q-86 63 -86 188zM768 1178l176 208h158l-236 -208h-98z" />
<glyph unicode="&#xfb;" d="M193 211q0 43 10 90l164 770h180l-152 -711q-8 -45 -8 -81q0 -154 166 -154q156 0 258 119q82 96 113 237l125 590h180l-228 -1071h-170l33 156l-2 4q-158 -190 -381 -191q-121 0 -196 51q-92 63 -92 191zM530 1214l264 289h191l141 -289h-164l-94 191l-176 -191h-162z " />
<glyph unicode="&#xfc;" d="M193 211q0 43 10 90l164 770h180l-152 -711q-8 -45 -8 -81q0 -154 166 -154q156 0 258 119q82 96 113 237l125 590h180l-228 -1071h-170l33 156l-2 4q-158 -190 -381 -191q-121 0 -196 51q-92 63 -92 191zM573 1237l45 209h186l-45 -209h-186zM905 1237l45 209h186 l-45 -209h-186z" />
<glyph unicode="&#xfd;" horiz-adv-x="1024" d="M31 -422l35 164q47 -18 104 -18q68 0 106 40q33 35 138 207l-164 1100h205l100 -872h4l471 872h199q-283 -500 -608 -1051q-127 -215 -199 -311t-139 -125q-53 -23 -179 -22q-20 0 -73 16zM692 1182l176 209h158l-235 -209h-99z" />
<glyph unicode="&#xfe;" d="M29 -424l403 1894h180l-116 -546h4q152 178 346 178q170 0 264 -107q86 -100 86 -270q0 -76 -16 -158q-49 -233 -183 -395q-168 -203 -415 -203q-197 0 -254 144h-4l-115 -537h-180zM381 371q0 -129 78 -195q61 -51 151 -51q141 0 244 119q94 109 133 295q20 98 21 166 q0 236 -228 235q-289 0 -387 -455q-12 -61 -12 -114z" />
<glyph unicode="&#xff;" horiz-adv-x="1024" d="M31 -422l35 164q47 -18 104 -18q70 0 109 40q31 35 135 207l-164 1100h205l100 -872h4l471 872h199q-199 -350 -608 -1051q-143 -238 -199 -311q-74 -96 -139 -125q-55 -23 -179 -22q-18 0 -73 16zM516 1237l45 209h186l-45 -209h-186zM848 1237l45 209h186l-45 -209 h-186z" />
<glyph unicode="&#x152;" horiz-adv-x="569" d="M186 0l314 1470h198l-313 -1470h-199zM545 1595l194 232h176l-262 -232h-108z" />
<glyph unicode="&#x153;" horiz-adv-x="1933" d="M170 387q0 274 176 487q186 229 457 228q270 -2 356 -217q188 217 461 217q356 0 356 -395q0 -104 -26 -230h-785q-14 -63 -14 -115q0 -238 252 -237q117 0 215 76q86 65 106 135h181q-20 -57 -76 -131q-76 -102 -178 -162q-125 -74 -305 -74q-256 0 -355 207 q-150 -207 -428 -205q-199 0 -301 125q-92 111 -92 291zM358 406q0 -279 238 -279q172 0 285 152q82 109 114 258q14 68 15 131q0 279 -240 278q-170 0 -285 -151q-81 -108 -112 -258q-14 -68 -15 -131zM1194 621h598q8 45 8 84q0 236 -237 235q-123 0 -231.5 -96 t-137.5 -223z" />
<glyph unicode="&#x178;" horiz-adv-x="1366" d="M342 1470h231l271 -706l573 706h234l-744 -878l-125 -592h-198l125 592zM770 1636l45 209h186l-45 -209h-186zM1102 1636l45 209h186l-45 -209h-186z" />
<glyph unicode="&#x2c6;" horiz-adv-x="681" d="M301 1214l264 289h191l141 -289h-164l-94 191l-176 -191h-162z" />
<glyph unicode="&#x2dc;" horiz-adv-x="681" d="M256 1241q76 219 260 219q63 0 131 -30l41 -19q59 -27 92 -27q82 1 121 95h103q-31 -96 -98.5 -160t-153.5 -64q-43 0 -115 27l-49 18q-82 31 -119 31q-68 0 -115 -90h-98z" />
<glyph unicode="&#x2000;" horiz-adv-x="953" />
<glyph unicode="&#x2001;" horiz-adv-x="1906" />
<glyph unicode="&#x2002;" horiz-adv-x="953" />
<glyph unicode="&#x2003;" horiz-adv-x="1906" />
<glyph unicode="&#x2004;" horiz-adv-x="635" />
<glyph unicode="&#x2005;" horiz-adv-x="476" />
<glyph unicode="&#x2006;" horiz-adv-x="317" />
<glyph unicode="&#x2007;" horiz-adv-x="317" />
<glyph unicode="&#x2008;" horiz-adv-x="238" />
<glyph unicode="&#x2009;" horiz-adv-x="381" />
<glyph unicode="&#x200a;" horiz-adv-x="105" />
<glyph unicode="&#x2010;" horiz-adv-x="681" d="M190 475l39 184h502l-39 -184h-502z" />
<glyph unicode="&#x2011;" horiz-adv-x="681" d="M190 475l39 184h502l-39 -184h-502z" />
<glyph unicode="&#x2012;" horiz-adv-x="681" d="M190 475l39 184h502l-39 -184h-502z" />
<glyph unicode="&#x2013;" d="M104 492l33 149h1139l-33 -149h-1139z" />
<glyph unicode="&#x2014;" horiz-adv-x="2048" d="M104 492l33 149h2048l-33 -149h-2048z" />
<glyph unicode="&#x2018;" horiz-adv-x="454" d="M338 963l43 200q57 272 281 322l-21 -96q-113 -16 -154 -209h109l-45 -217h-213z" />
<glyph unicode="&#x2019;" horiz-adv-x="454" d="M309 948l21 96q113 16 153 209h-108l47 217h213l-43 -200q-57 -272 -283 -322z" />
<glyph unicode="&#x201a;" horiz-adv-x="454" d="M43 -305l20 96q113 16 154 209h-108l47 217h213l-43 -201q-57 -272 -283 -321z" />
<glyph unicode="&#x201c;" horiz-adv-x="681" d="M283 963l43 200q57 272 280 322l-20 -96q-113 -16 -154 -209h109l-45 -217h-213zM621 963l43 200q57 272 280 322l-20 -96q-113 -16 -154 -209h109l-45 -217h-213z" />
<glyph unicode="&#x201d;" horiz-adv-x="681" d="M254 948l20 96q113 16 154 209h-109l48 217h213l-43 -200q-57 -272 -283 -322zM592 948l20 96q113 16 154 209h-109l48 217h213l-44 -200q-57 -272 -282 -322z" />
<glyph unicode="&#x201e;" horiz-adv-x="681" d="M-12 -305l20 96q113 16 154 209h-109l47 217h213l-43 -201q-57 -272 -282 -321zM326 -305l20 96q113 16 154 209h-109l47 217h213l-43 -201q-57 -272 -282 -321z" />
<glyph unicode="&#x2022;" horiz-adv-x="716" d="M186 666q0 35 7 69q29 135 142.5 229.5t248.5 94.5q115 0 188.5 -73t73.5 -183q0 -33 -8 -68q-29 -133 -143.5 -227t-248.5 -94q-115 0 -187.5 71.5t-72.5 180.5z" />
<glyph unicode="&#x2026;" horiz-adv-x="2048" d="M236 0l47 217h213l-47 -217h-213zM918 0l47 217h213l-48 -217h-212zM1599 0l48 217h213l-48 -217h-213z" />
<glyph unicode="&#x202f;" horiz-adv-x="381" />
<glyph unicode="&#x2039;" horiz-adv-x="681" d="M281 473l41 189l374 251l-39 -180l-249 -166l180 -166l-39 -180z" />
<glyph unicode="&#x203a;" horiz-adv-x="681" d="M227 221l39 180l250 166l-180 166l39 180l268 -251l-41 -189z" />
<glyph unicode="&#x205f;" horiz-adv-x="476" />
<glyph unicode="&#x2122;" horiz-adv-x="2048" d="M381 1348l27 122h669l-26 -122h-260l-154 -721h-150l154 721h-260zM1044 627l181 843h229l109 -620l370 620h230l-181 -843h-149l145 686h-4l-409 -686h-103l-119 686h-4l-145 -686h-150z" />
<glyph unicode="&#x25fc;" horiz-adv-x="1075" d="M0 0v1075h1075v-1075h-1075z" />
</font>
</defs>
</svg>
